<?xml version="1.0" encoding="UTF-8" standalone="no"?>
<!-- Generator: Adobe Illustrator 15.0.0, SVG Export Plug-In . SVG Version: 6.00 Build 0)  -->

<svg
   xmlns:dc="http://purl.org/dc/elements/1.1/"
   xmlns:cc="http://creativecommons.org/ns#"
   xmlns:rdf="http://www.w3.org/1999/02/22-rdf-syntax-ns#"
   xmlns:svg="http://www.w3.org/2000/svg"
   xmlns="http://www.w3.org/2000/svg"
   xmlns:sodipodi="http://sodipodi.sourceforge.net/DTD/sodipodi-0.dtd"
   xmlns:inkscape="http://www.inkscape.org/namespaces/inkscape"
   version="1.1"
   id="Layer_1"
   x="0px"
   y="0px"
   width="660.1875"
   height="660.1875"
   viewBox="0 0 660.1875 660.1875"
   enable-background="new 0 0 800 800"
   xml:space="preserve"
   inkscape:version="0.48.1 "
   sodipodi:docname="AJAX.svg"><metadata
   id="metadata23"><rdf:RDF><cc:Work
       rdf:about=""><dc:format>image/svg+xml</dc:format><dc:type
         rdf:resource="http://purl.org/dc/dcmitype/StillImage" /></cc:Work></rdf:RDF></metadata><defs
   id="defs21" /><sodipodi:namedview
   pagecolor="#ffffff"
   bordercolor="#666666"
   borderopacity="1"
   objecttolerance="10"
   gridtolerance="10"
   guidetolerance="10"
   inkscape:pageopacity="0"
   inkscape:pageshadow="2"
   inkscape:window-width="640"
   inkscape:window-height="480"
   id="namedview19"
   showgrid="false"
   fit-margin-top="0"
   fit-margin-left="0"
   fit-margin-right="0"
   fit-margin-bottom="0"
   inkscape:zoom="0.32625"
   inkscape:cx="330.09375"
   inkscape:cy="330.09375"
   inkscape:window-x="0"
   inkscape:window-y="0"
   inkscape:window-maximized="0"
   inkscape:current-layer="Layer_1" />
<circle
   stroke-miterlimit="10"
   cx="400"
   cy="400"
   r="320"
   id="circle3"
   sodipodi:cx="400"
   sodipodi:cy="400"
   sodipodi:rx="320"
   sodipodi:ry="320"
   style="fill:none;stroke:#000000;stroke-width:24;stroke-miterlimit:10"
   transform="translate(-69.90625,-69.90625)" />
<circle
   stroke-miterlimit="10"
   cx="400"
   cy="400"
   r="329.60001"
   id="circle5"
   sodipodi:cx="400"
   sodipodi:cy="400"
   sodipodi:rx="329.60001"
   sodipodi:ry="329.60001"
   style="fill:none;stroke:#000000;stroke-miterlimit:10"
   transform="translate(-69.90625,-69.90625)" />
<polygon
   display="none"
   stroke-miterlimit="10"
   points="255.652,599 633.56,324.313 166.44,324.273 544.348,599 400,154.501 "
   id="polygon7"
   style="fill:none;stroke:#000000;stroke-width:24;stroke-miterlimit:10;display:none"
   transform="translate(-69.90625,-69.90625)" />
<path
   stroke-miterlimit="10"
   d="m 502.27975,567.43375 -172.175,-125.165 -172.195,125.161 65.77,-202.529 -172.179,-125.168 212.82,0.018 65.773,-202.538 65.776,202.549 212.812,0.019 -172.167,125.141 65.765,202.512 z m -257.573,-187.247 -39.785,122.512 104.162,-75.712 -64.377,-46.8 z m 106.42,46.802 104.139,75.706 -39.778,-122.488 -64.361,46.782 z m -98.39,-71.527 77.369,56.245 77.354,-56.226 -29.553,-91.001 -95.622,-0.009 -29.548,90.991 z m 151.161,-90.979 24.589,75.716 104.151,-75.705 -128.74,-0.011 z m -276.344,-0.024 104.155,75.717 24.585,-75.706 -128.74,-0.011 z m 162.758,-24.706 79.567,0.007 -39.785,-122.512 -39.782,122.505 z"
   id="path9"
   inkscape:connector-curvature="0"
   style="stroke:#000000;stroke-width:4;stroke-linecap:round;stroke-linejoin:round;stroke-miterlimit:10" />
<circle
   stroke-miterlimit="10"
   cx="528"
   cy="224"
   r="36"
   id="circle11"
   sodipodi:cx="528"
   sodipodi:cy="224"
   sodipodi:rx="36"
   sodipodi:ry="36"
   style="stroke:#000000;stroke-width:4;stroke-linecap:round;stroke-linejoin:round;stroke-miterlimit:10"
   transform="translate(-69.90625,-69.90625)" />
<circle
   stroke-miterlimit="10"
   cx="272"
   cy="224"
   r="36"
   id="circle13"
   sodipodi:cx="272"
   sodipodi:cy="224"
   sodipodi:rx="36"
   sodipodi:ry="36"
   style="stroke:#000000;stroke-width:4;stroke-linecap:round;stroke-linejoin:round;stroke-miterlimit:10"
   transform="translate(-69.90625,-69.90625)" />
<line
   display="none"
   stroke-miterlimit="10"
   x1="455.26575"
   y1="502.69476"
   x2="117.24275"
   y2="37.212753"
   id="line15"
   style="fill:none;stroke:#000000;stroke-width:4;stroke-linecap:round;stroke-linejoin:round;stroke-miterlimit:10;display:none" />
<line
   display="none"
   stroke-miterlimit="10"
   x1="204.92175"
   y1="502.69775"
   x2="538.09375"
   y2="43.918747"
   id="line17"
   style="fill:none;stroke:#000000;stroke-width:4;stroke-linecap:round;stroke-linejoin:round;stroke-miterlimit:10;display:none" />
</svg>