<?xml version="1.0" encoding="utf-8"?>
<!-- Generator: Adobe Illustrator 13.0.0, SVG Export Plug-In . SVG Version: 6.00 Build 14948)  -->
<!DOCTYPE svg PUBLIC "-//W3C//DTD SVG 1.1//EN" "http://www.w3.org/Graphics/SVG/1.1/DTD/svg11.dtd">
<svg version="1.1" id="Layer_1" xmlns="http://www.w3.org/2000/svg" xmlns:xlink="http://www.w3.org/1999/xlink" x="0px" y="0px"
	 width="300px" height="300px" viewBox="0 0 300 300" enable-background="new 0 0 300 300" xml:space="preserve">
<g>
	<defs>
		<rect id="SVGID_1_" width="300" height="300"/>
	</defs>
	<clipPath id="SVGID_2_">
		<use xlink:href="#SVGID_1_"  overflow="visible"/>
	</clipPath>
	<g id="surface0" clip-path="url(#SVGID_2_)">
		<path fill="none" stroke="#000000" stroke-width="0.1" stroke-miterlimit="10" d="M55.595,77.893
			c7.243-0.7,14.895,2.289,19.441,8.044c3.176,3.596,4.597,8.367,5.114,13.051c-0.259,5.487-2.229,11.043-6.143,15.001
			c-5.93,6.507-16.053,8.697-24.182,5.362c-11.052-3.841-17.549-17.956-12.054-28.592C40.835,83.605,47.958,78.799,55.595,77.893z"
			/>
		<path d="M55.595,77.893c7.243-0.7,14.895,2.289,19.441,8.044c3.176,3.596,4.597,8.367,5.114,13.051
			c-0.259,5.487-2.229,11.043-6.143,15.001c-5.93,6.507-16.053,8.697-24.182,5.362c-11.052-3.841-17.549-17.956-12.054-28.592
			C40.835,83.605,47.958,78.799,55.595,77.893z"/>
		<path fill="none" stroke="#000000" stroke-width="0.1" stroke-miterlimit="10" d="M51.227,128.143
			c5.452-4.413,12.82-2.503,18.639,0.068c23.232,11.212,44.493,25.959,65.696,40.533c-2.158-4.086-0.528-8.764,2.065-12.216
			c3.787-3.26,9.289-3.507,13.929-2.243c9.327,2.369,17.529,7.614,25.949,12.074c14.313,7.769,27.828,16.867,41.563,25.588
			c0.194-2.738-0.088-5.59,0.845-8.216c1.729-2.007,5.132-1.493,5.591,1.312c0.178,3.67-0.278,7.344-0.776,10.978
			c13.024,8.728,26.084,17.427,39.099,26.165c-1.73,0.764-3.44-0.223-5.043-0.768c-12.324-4.834-24.739-9.433-37.045-14.311
			c-2.941,6.964-8.944,12.989-16.566,14.398c-7.037,0.975-14.207,0.064-21.018-1.82c-7.744-3.396-15.77-6.103-23.658-9.141
			c-39.118-14.723-78.319-29.226-117.395-44.06c0.75-1.833,1.503-3.663,2.271-5.487c46.884,17.051,93.465,34.975,140.313,52.137
			c6.083,2.526,12.987,3.583,19.439,1.969c5.059-1.285,8.773-5.484,10.659-10.195c-19.968-7.49-39.745-15.477-59.705-22.987
			c-5.179-1.976-10.078-4.608-15.287-6.509c-23.481-8.612-46.964-17.218-70.375-26.015c-6.904-2.429-14.455-4.673-19.374-10.447
			C48.338,135.88,48.964,131.248,51.227,128.143z"/>
		<path d="M51.227,128.143c5.452-4.413,12.82-2.503,18.639,0.068c23.232,11.212,44.493,25.959,65.696,40.533
			c-2.158-4.086-0.528-8.764,2.065-12.216c3.787-3.26,9.289-3.507,13.929-2.243c9.327,2.369,17.529,7.614,25.949,12.074
			c14.313,7.769,27.828,16.867,41.563,25.588c0.194-2.738-0.088-5.59,0.845-8.216c1.729-2.007,5.132-1.493,5.591,1.312
			c0.178,3.67-0.278,7.344-0.776,10.978c13.024,8.728,26.084,17.427,39.099,26.165c-1.73,0.764-3.44-0.223-5.043-0.768
			c-12.324-4.834-24.739-9.433-37.045-14.311c-2.941,6.964-8.944,12.989-16.566,14.398c-7.037,0.975-14.207,0.064-21.018-1.82
			c-7.744-3.396-15.77-6.103-23.658-9.141c-39.118-14.723-78.319-29.226-117.395-44.06c0.75-1.833,1.503-3.663,2.271-5.487
			c46.884,17.051,93.465,34.975,140.313,52.137c6.083,2.526,12.987,3.583,19.439,1.969c5.059-1.285,8.773-5.484,10.659-10.195
			c-19.968-7.49-39.745-15.477-59.705-22.987c-5.179-1.976-10.078-4.608-15.287-6.509c-23.481-8.612-46.964-17.218-70.375-26.015
			c-6.904-2.429-14.455-4.673-19.374-10.447C48.338,135.88,48.964,131.248,51.227,128.143z"/>
		<path fill="none" stroke="#000000" stroke-width="0.1" stroke-miterlimit="10" d="M49.75,149.91
			c1.078-3.085,4.741-4.61,7.699-3.191c37.581,14.059,75.182,28.07,112.768,42.123c1.645,0.627,3.253,1.347,4.868,2.058
			c1.175,2.143,1.962,4.94-0.027,6.897c-2.603,2.953-6.726,1.23-9.769,0.037c-36.937-13.766-73.906-27.445-110.854-41.177
			C51.588,155.814,48.954,153.074,49.75,149.91z"/>
		<path d="M49.75,149.91c1.078-3.085,4.741-4.61,7.699-3.191c37.581,14.059,75.182,28.07,112.768,42.123
			c1.645,0.627,3.253,1.347,4.868,2.058c1.175,2.143,1.962,4.94-0.027,6.897c-2.603,2.953-6.726,1.23-9.769,0.037
			c-36.937-13.766-73.906-27.445-110.854-41.177C51.588,155.814,48.954,153.074,49.75,149.91z"/>
	</g>
</g>
</svg>
