<?xml version="1.0" encoding="UTF-8" standalone="no"?>
<!-- Created with Inkscape (http://www.inkscape.org/) -->

<svg
   xmlns:dc="http://purl.org/dc/elements/1.1/"
   xmlns:cc="http://creativecommons.org/ns#"
   xmlns:rdf="http://www.w3.org/1999/02/22-rdf-syntax-ns#"
   xmlns:svg="http://www.w3.org/2000/svg"
   xmlns="http://www.w3.org/2000/svg"
   xmlns:sodipodi="http://sodipodi.sourceforge.net/DTD/sodipodi-0.dtd"
   xmlns:inkscape="http://www.inkscape.org/namespaces/inkscape"
   version="1.0"
   width="744.1875"
   height="744.16248"
   id="svg2"
   xml:space="preserve"
   inkscape:version="0.91 r13725"
   sodipodi:docname="11.svg"><metadata
     id="metadata22"><rdf:RDF><cc:Work
         rdf:about=""><dc:format>image/svg+xml</dc:format><dc:type
           rdf:resource="http://purl.org/dc/dcmitype/StillImage" /></cc:Work></rdf:RDF></metadata><sodipodi:namedview
     pagecolor="#ffffff"
     bordercolor="#666666"
     borderopacity="1"
     objecttolerance="10"
     gridtolerance="10"
     guidetolerance="10"
     inkscape:pageopacity="0"
     inkscape:pageshadow="2"
     inkscape:window-width="640"
     inkscape:window-height="480"
     id="namedview20"
     showgrid="false"
     inkscape:zoom="0.89699336"
     inkscape:cx="90.465919"
     inkscape:cy="587.57129"
     inkscape:window-x="65"
     inkscape:window-y="34"
     inkscape:window-maximized="0"
     inkscape:current-layer="g11" /><defs
     id="defs5"><clipPath
       id="clipPath19"><path
         d="M 0.492188,0.0351562 L 5953.24,0.0351562 L 5953.24,5952.79 L 0.492188,5952.79 L 0.492188,0.0351562 z"
         id="path21" /></clipPath></defs><g
     transform="matrix(1.25,0,0,-1.25,0,744.1625)"
     id="g11"><g
       transform="scale(0.1,0.1)"
       id="g13"><g
         id="g15"><g
           clip-path="url(#clipPath19)"
           id="g17"><path
             d="M 4190.24,779.945 C 4149.19,790.824 4106.2,770.977 4087.86,732.684 C 4069.51,694.395 4080.97,648.457 4115.17,623.285 C 4315.14,520.465 4558.78,559.977 4716,720.734 L 5490.11,1512.25 L 5490.11,1825.73 L 4559.3,873.984 C 4463.56,776.086 4321.16,739.797 4190.24,779.945"
             id="path27"
             style="fill:#000000;fill-opacity:1;fill-rule:nonzero;stroke:none" /><path
             d="M 4190.24,779.945 C 4149.19,790.824 4106.2,770.977 4087.86,732.684 C 4069.51,694.395 4080.97,648.457 4115.17,623.285 C 4315.14,520.465 4558.78,559.977 4716,720.734 L 5490.11,1512.25 L 5490.11,1825.73 L 4559.3,873.984 C 4463.56,776.086 4321.16,739.797 4190.24,779.945 z"
             id="path29"
             style="fill:none;stroke:#000000;stroke-width:7.07818985;stroke-linecap:round;stroke-linejoin:round;stroke-miterlimit:500;stroke-dasharray:none;stroke-opacity:1" /><path
             d="M 4471.72,3213.16 C 4456.11,3140.75 4398.79,3084.64 4326.06,3070.59 C 4253.32,3056.52 4179.22,3087.2 4137.74,3148.57 L 3661.54,3852.96 L 3215.08,3852.96 L 4334.13,2197.64 L 5183.34,2197.64 C 5305.91,2197.64 5405.27,2098.27 5405.27,1975.71 C 5405.27,1853.14 5305.91,1753.8 5183.34,1753.8 L 4090.61,1753.8 C 4016.92,1753.8 3948.04,1790.38 3906.76,1851.41 L 3306.71,2739.04 L 2287.39,2032.5 L 2287.39,1201.3 C 2287.39,1078.73 2188.03,979.363 2065.47,979.363 C 1942.9,979.363 1843.55,1078.73 1843.55,1201.3 L 1843.55,2275.39 C 1843.55,2348.16 1879.23,2416.32 1939.04,2457.77 L 2756.59,3024.45 L 2196.5,3852.96 L 1072.79,3852.96 L 1955.74,2546.89 L 1849.26,2473.07 L 916.422,3852.96 L 886.922,3852.96 C 784.793,3852.96 701.98,3935.77 701.98,4037.91 C 701.98,4140.05 784.781,4222.84 886.922,4222.84 L 3740.12,4222.84 C 3813.81,4222.84 3882.71,4186.25 3923.98,4125.2 L 4452.96,3342.71 L 5154.51,3342.71 L 5154.51,3213.16 L 4471.73,3213.16"
             id="path31"
             style="fill:#000000;fill-opacity:1;fill-rule:nonzero;stroke:none" /><path
             d="M 4471.72,3213.16 L 4471.72,3213.16 C 4456.11,3140.75 4398.79,3084.64 4326.06,3070.59 C 4253.32,3056.52 4179.22,3087.2 4137.74,3148.57 L 3661.54,3852.96 L 3215.08,3852.96 L 4334.13,2197.64 L 5183.34,2197.64 C 5305.91,2197.64 5405.27,2098.27 5405.27,1975.71 C 5405.27,1853.14 5305.91,1753.8 5183.34,1753.8 L 4090.61,1753.8 C 4016.92,1753.8 3948.04,1790.38 3906.76,1851.41 L 3306.71,2739.04 L 2287.39,2032.5 L 2287.39,1201.3 C 2287.39,1078.73 2188.03,979.363 2065.47,979.363 C 1942.9,979.363 1843.55,1078.73 1843.55,1201.3 L 1843.55,2275.39 C 1843.55,2348.16 1879.23,2416.32 1939.04,2457.77 L 2756.59,3024.45 L 2196.5,3852.96 L 1072.79,3852.96 L 1955.74,2546.89 L 1849.26,2473.07 L 916.422,3852.96 L 886.922,3852.96 C 784.793,3852.96 701.98,3935.77 701.98,4037.91 C 701.98,4140.05 784.781,4222.84 886.922,4222.84 L 3740.12,4222.84 C 3813.81,4222.84 3882.71,4186.25 3923.98,4125.2 L 4452.96,3342.71 L 5154.51,3342.71 L 5154.51,3213.16 L 4471.73,3213.16 L 4471.72,3213.16 z"
             id="path33"
             style="fill:none;stroke:#000000;stroke-width:7.07818985;stroke-linecap:round;stroke-linejoin:round;stroke-miterlimit:500;stroke-dasharray:none;stroke-opacity:1" /><path
             d="M 2337.83,5265.84 C 2212.14,5348.61 2048.98,5347.61 1924.3,5263.32 C 1799.62,5179.04 1737.89,5028 1767.86,4880.52 C 1816.71,4640.05 1980.83,4439.05 2206.67,4343.11 C 2311.31,4298.64 2431.36,4310.25 2525.56,4373.93 C 2619.76,4437.59 2675.27,4544.68 2673,4658.36 C 2668.13,4903.7 2542.77,5130.89 2337.83,5265.84"
             id="path35"
             style="fill:#000000;fill-opacity:1;fill-rule:nonzero;stroke:none" /><path
             d="M 2337.83,5265.84 C 2212.14,5348.61 2048.98,5347.61 1924.3,5263.32 C 1799.62,5179.04 1737.89,5028 1767.86,4880.52 C 1816.71,4640.05 1980.83,4439.05 2206.67,4343.11 C 2311.31,4298.64 2431.36,4310.25 2525.56,4373.93 C 2619.76,4437.59 2675.27,4544.68 2673,4658.36 C 2668.13,4903.7 2542.77,5130.89 2337.83,5265.84 z"
             id="path37"
             style="fill:none;stroke:#000000;stroke-width:7.07818985;stroke-linecap:round;stroke-linejoin:round;stroke-miterlimit:500;stroke-dasharray:none;stroke-opacity:1" /><path
             d="M 1083.78,590.316 L 3514.81,590.316 L 3514.81,842.387 L 1058.32,842.387 C 901.363,842.387 766.293,953.336 735.812,1107.3 C 728.551,1143.95 694.883,1169.25 657.672,1166.04 C 620.453,1162.82 591.633,1132.11 590.781,1094.77 C 587.742,962.047 638.332,833.715 731.133,738.773 C 823.922,643.836 951.062,590.316 1083.81,590.316 L 1083.78,590.316"
             id="path39"
             style="fill:#000000;fill-opacity:1;fill-rule:nonzero;stroke:none" /><path
             d="M 1083.78,590.316 L 3514.81,590.316 L 3514.81,842.387 L 1058.32,842.387 C 901.363,842.387 766.293,953.336 735.812,1107.3 C 728.551,1143.95 694.883,1169.25 657.672,1166.04 C 620.453,1162.82 591.633,1132.11 590.781,1094.77 C 587.742,962.047 638.332,833.715 731.133,738.773 C 823.922,643.836 951.062,590.316 1083.81,590.316 L 1083.78,590.316 z"
             id="path18" /></g></g></g></g></svg>