<?xml version="1.0" encoding="UTF-8" standalone="no"?>
<!-- Created with Inkscape (http://www.inkscape.org/) -->
<svg
   xmlns:svg="http://www.w3.org/2000/svg"
   xmlns="http://www.w3.org/2000/svg"
   version="1.0"
   width="120"
   height="99"
   id="svg10701">
  <defs
     id="defs10703" />
  <g
     transform="translate(-811.42859,-851.43359)"
     id="layer1">
    <g
       id="g10921">
      <path
         d="M 907.17512,914.00555 C 917.21142,916.23584 914.39834,907.714 912.75084,898.39354 C 911.71996,892.56148 919.81342,885.19887 919.81342,878.81657 C 919.81342,870.91832 914.17973,861.96551 909.77713,861.96551 C 906.0578,861.96551 901.72331,873.86037 892.58746,875.16222 C 889.64276,870.75491 883.25012,867.78903 871.58346,867.78903 C 865.57689,867.83486 859.7864,868.33328 854.82334,871.01175 C 852.98842,871.98758 851.38256,873.41046 850.25735,875.17275 C 841.13387,873.86037 836.79938,861.96551 833.08005,861.96551 C 828.67745,861.96551 823.04376,870.91832 823.04376,878.81657 C 823.04376,885.19887 831.13722,892.56148 830.10634,898.39354 C 828.45884,907.714 825.64576,916.23584 835.70562,913.79383 C 833.82393,921.05707 833.63566,929.88978 834.81472,939.40606 L 853.40045,939.40606 C 855.03013,935.24524 856.38389,930.63343 857.24667,925.28211 C 859.7196,927.01557 868.2505,928.37852 872.17202,928.37852 C 875.64009,928.37852 880.46663,928.04254 885.58238,925.11019 C 886.41419,930.43146 887.7914,935.15422 889.45673,939.40606 L 908.04246,939.40606 C 909.20765,930.0018 909.03749,921.2651 907.19455,913.84664"
         style="fill:#ffffff;fill-rule:evenodd;stroke:none;stroke-width:1.5;stroke-linecap:butt;stroke-linejoin:miter;stroke-miterlimit:4;stroke-opacity:1"
         id="path10871" />
      <path
         d="M 857.98493,919.58128 C 857.3133,927.29078 855.61062,933.76316 853.40045,939.40606 L 834.81472,939.40606 C 831.33813,911.34637 839.74951,889.22973 869.01247,890.33972"
         style="fill:none;fill-rule:evenodd;stroke:#000000;stroke-width:1.5;stroke-linecap:round;stroke-linejoin:miter;stroke-miterlimit:4;stroke-dasharray:none;stroke-opacity:1"
         id="path10723" />
      <path
         d="M 850.30283,875.22333 C 841.13387,873.86037 836.79938,861.96551 833.08005,861.96551 C 828.67745,861.96551 823.04376,870.91832 823.04376,878.81657 C 823.04376,885.19887 831.13722,892.56148 830.10634,898.39354 C 828.45884,907.714 825.64576,916.23584 835.68206,914.00555"
         style="fill:none;fill-rule:evenodd;stroke:#000000;stroke-width:1.5;stroke-linecap:butt;stroke-linejoin:miter;stroke-miterlimit:4;stroke-dasharray:none;stroke-opacity:1"
         id="path10727" />
      <path
         d="M 891.93482,893.68515 C 897.38664,881.91419 897.04393,867.78903 871.58346,867.78903 C 865.57689,867.83486 859.7864,868.33328 854.82334,871.01175 C 851.49341,872.78265 848.91784,876.02582 848.32856,879.79563 C 847.52093,884.55407 848.95871,889.38469 850.92236,893.68515"
         style="fill:none;fill-rule:evenodd;stroke:#000000;stroke-width:1.5;stroke-linecap:butt;stroke-linejoin:miter;stroke-miterlimit:4;stroke-dasharray:none;stroke-opacity:1"
         id="path10719" />
      <path
         d="M 885.61568,925.15699 C 880.46663,928.04254 875.64009,928.37852 872.17202,928.37852 C 868.2505,928.37852 859.7196,927.01557 857.2415,925.15699"
         style="fill:none;fill-rule:evenodd;stroke:#000000;stroke-width:1.5;stroke-linecap:butt;stroke-linejoin:miter;stroke-miterlimit:4;stroke-dasharray:none;stroke-opacity:1"
         id="path10721" />
      <path
         d="M 884.87225,919.58128 C 885.54388,927.29078 887.24656,933.76316 889.45673,939.40606 L 908.04246,939.40606 C 911.51905,911.34637 903.10767,889.22973 873.84471,890.33972"
         style="fill:none;fill-rule:evenodd;stroke:#000000;stroke-width:1.5;stroke-linecap:round;stroke-linejoin:miter;stroke-miterlimit:4;stroke-dasharray:none;stroke-opacity:1"
         id="path10756" />
      <path
         d="M 892.55435,875.22333 C 901.72331,873.86037 906.0578,861.96551 909.77713,861.96551 C 914.17973,861.96551 919.81342,870.91832 919.81342,878.81657 C 919.81342,885.19887 911.71996,892.56148 912.75084,898.39354 C 914.39834,907.714 917.21142,916.23584 907.17512,914.00555"
         style="fill:none;fill-rule:evenodd;stroke:#000000;stroke-width:1.5;stroke-linecap:butt;stroke-linejoin:miter;stroke-miterlimit:4;stroke-dasharray:none;stroke-opacity:1"
         id="path10758" />
      <path
         d="M 881.40291,900.0043 C 869.00434,898.03996 876.24186,881.79029 871.52151,881.79029 C 866.61532,881.79029 873.85284,898.03996 861.45427,900.0043"
         style="fill:none;fill-rule:evenodd;stroke:#000000;stroke-width:1.5;stroke-linecap:round;stroke-linejoin:miter;stroke-miterlimit:4;stroke-dasharray:none;stroke-opacity:1"
         id="path10729" />
      <path
         d="M 60.341679,46.9591 L 62.29137,53.321485 L 68.944846,53.209667 L 63.496345,57.030018 L 65.658728,63.323296 L 60.341679,59.322018 L 55.024629,63.323296 L 57.187012,57.030018 L 51.738512,53.209666 L 58.391987,53.321485 L 60.341679,46.9591 z "
         transform="matrix(0.473659,0,0,0.473659,842.84721,881.01424)"
         style="opacity:1;fill:none;fill-opacity:1;stroke:#000000;stroke-width:2.63902926;stroke-linecap:round;stroke-linejoin:round;stroke-miterlimit:4;stroke-dasharray:none;stroke-dashoffset:0;stroke-opacity:1"
         id="path10783" />
    </g>
  </g>
</svg>
