<?xml version="1.0" encoding="UTF-8" standalone="no"?>
<!-- Created with Inkscape (http://www.inkscape.org/) -->
<svg
   xmlns:dc="http://purl.org/dc/elements/1.1/"
   xmlns:cc="http://web.resource.org/cc/"
   xmlns:rdf="http://www.w3.org/1999/02/22-rdf-syntax-ns#"
   xmlns:svg="http://www.w3.org/2000/svg"
   xmlns="http://www.w3.org/2000/svg"
   xmlns:sodipodi="http://inkscape.sourceforge.net/DTD/sodipodi-0.dtd"
   xmlns:inkscape="http://www.inkscape.org/namespaces/inkscape"
   id="svg2313"
   sodipodi:version="0.32"
   inkscape:version="0.43"
   width="523"
   height="325"
   sodipodi:docbase="/usr/home/sebastian"
   sodipodi:docname="El Gat Negre.svg"
   version="1.0">
  <metadata
     id="metadata2318">
    <rdf:RDF>
      <cc:Work
         rdf:about="">
        <dc:format>image/svg+xml</dc:format>
        <dc:type
           rdf:resource="http://purl.org/dc/dcmitype/StillImage" />
      </cc:Work>
    </rdf:RDF>
  </metadata>
  <defs
     id="defs2316" />
  <sodipodi:namedview
     inkscape:window-height="951"
     inkscape:window-width="1280"
     inkscape:pageshadow="2"
     inkscape:pageopacity="0.0"
     borderopacity="1.0"
     bordercolor="#666666"
     pagecolor="#ffffff"
     id="base"
     inkscape:zoom="1"
     inkscape:cx="255.15518"
     inkscape:cy="122.84539"
     inkscape:window-x="0"
     inkscape:window-y="25"
     inkscape:current-layer="svg2313" />
  <path
     id="path2356"
     d="M 60.51356,314.9913 C 60.51356,308.57426 63.3438,304.16298 68.51356,302.52214 C 78.07332,299.48798 77.94536,304.26562 70.38816,232.52214 C 61.30528,146.29488 61.00204,144.98018 48.731,138.63458 C 20.19144,123.87621 0.51356,88.34346 0.51356,51.56742 C 0.51356,32.83025 8.21452,0.52214 12.68072,0.52214 C 14.45032,0.52214 21.67152,6.2955 28.72788,13.35183 C 41.357521,25.9815 42.157401,26.18417 80.03556,26.35183 C 118.3118,26.52125 118.57896,26.45398 130.98588,13.52214 C 137.84564,6.37214 145.37432,0.52214 147.71632,0.52214 C 154.7852,0.52214 157.89668,16.73242 157.60432,52.03694 L 157.3268,85.55173 L 233.92016,82.41415 C 351.82552,77.58428 392.0812,78.42151 409.53336,86.06653 C 425.73968,93.16582 445.67896,117.42859 452.07936,137.83794 C 454.26716,144.81426 460.88896,166.66612 466.79448,186.39766 C 476.7572,219.68512 479.2632,223.92584 501.53312,245.18262 C 526.0514,268.58542 529.73556,280.52214 512.44044,280.52214 C 490.03352,280.52214 454.07644,245.75766 442.1344,212.54802 C 438.2554,201.76085 433.60384,193.84832 431.7976,194.96463 C 426.3574,198.32687 428.10204,222.449 434.38636,230.75762 C 442.87672,241.98292 441.86016,255.9507 430.28976,287.0459 C 418.387,319.03426 413.3696,323.92738 393.30132,323.1183 C 381.37896,322.63766 378.51356,320.97198 378.51356,314.52214 C 378.51356,309.97238 382.51356,304.79702 387.78832,302.52214 C 400.71024,296.94918 396.94996,281.12506 376.16052,253.58966 C 351.474,220.8926 338.69836,219.02778 350.46528,249.83902 C 357.06948,267.13194 357.00208,268.37066 348.112,293.08202 C 343.07824,307.0741 337.05936,319.84458 334.73664,321.4609 C 332.41396,323.07722 322.86356,324.42718 313.51356,324.4609 C 298.15568,324.51622 296.51356,323.58222 296.51356,314.7917 C 296.51356,308.57426 299.40184,304.14454 304.51356,302.52214 C 308.91356,301.12562 312.51356,297.54246 312.51356,294.5595 C 312.51356,286.44206 294.63592,266.76146 272.50456,250.51554 C 254.90488,237.5962 250.6484,236.21888 231.6848,237.30716 L 210.51356,238.52214 L 205.89284,278.52214 C 203.35144,300.52214 201.10144,319.96198 200.89284,321.72174 C 200.68424,323.48154 190.16356,324.38154 177.51356,323.72174 C 158.045,322.70634 154.51356,321.36074 154.51356,314.9581 C 154.51356,310.79786 158.11356,305.39786 162.51356,302.9581 C 166.91356,300.5183 171.25204,298.08366 172.1546,297.54774 C 174.48728,296.1627 159.87732,247.5359 155.32168,241.52214 C 153.23844,238.77214 144.80904,236.52214 136.5896,236.52214 L 121.64524,236.52214 L 116.63324,267.52214 C 107.22972,325.68422 109.20564,322.35522 83.27584,323.72174 C 61.38332,324.87554 60.51356,324.54194 60.51356,314.9913 z M 62.51356,76.52214 C 69.66448,68.62044 69.50008,68.52214 49.13352,68.52214 C 28.09316,68.52214 22.98364,72.90374 35.513561,80.20175 C 46.234041,86.44585 54.55956,85.31123 62.51356,76.52214 z M 122.22156,78.43626 C 132.93204,70.33329 128.56924,67.84264 106.19224,69.28542 C 87.90888,70.46426 87.34044,70.8498 94.04804,77.52214 C 102.53952,85.96903 111.86484,86.2716 122.22156,78.43626 z "
     style="fill:#010101" />
</svg>
