<?xml version="1.0" encoding="UTF-8" standalone="no"?>
<svg
   xmlns:dc="http://purl.org/dc/elements/1.1/"
   xmlns:cc="http://creativecommons.org/ns#"
   xmlns:rdf="http://www.w3.org/1999/02/22-rdf-syntax-ns#"
   xmlns:svg="http://www.w3.org/2000/svg"
   xmlns="http://www.w3.org/2000/svg"
   xmlns:sodipodi="http://sodipodi.sourceforge.net/DTD/sodipodi-0.dtd"
   xmlns:inkscape="http://www.inkscape.org/namespaces/inkscape"
   width="502pt"
   height="539pt"
   viewBox="0 0 502 539"
   version="1.1"
   id="svg2"
   sodipodi:version="0.32"
   inkscape:version="0.46"
   sodipodi:docname="Hand_8.svg"
   inkscape:output_extension="org.inkscape.output.svg.inkscape">
  <metadata
     id="metadata23">
    <rdf:RDF>
      <cc:Work
         rdf:about="">
        <dc:format>image/svg+xml</dc:format>
        <dc:type
           rdf:resource="http://purl.org/dc/dcmitype/StillImage" />
      </cc:Work>
    </rdf:RDF>
  </metadata>
  <defs
     id="defs21">
    <inkscape:perspective
       sodipodi:type="inkscape:persp3d"
       inkscape:vp_x="0 : 336.875 : 1"
       inkscape:vp_y="0 : 1000 : 0"
       inkscape:vp_z="627.5 : 336.875 : 1"
       inkscape:persp3d-origin="313.75 : 224.58333 : 1"
       id="perspective25" />
  </defs>
  <sodipodi:namedview
     inkscape:window-height="480"
     inkscape:window-width="640"
     inkscape:pageshadow="2"
     inkscape:pageopacity="0.0"
     guidetolerance="10.0"
     gridtolerance="10.0"
     objecttolerance="10.0"
     borderopacity="1.0"
     bordercolor="#666666"
     pagecolor="#ffffff"
     id="base"
     showgrid="false" />
  <path
     fill="#000000"
     d=" M 221.14 19.40 C 222.75 8.30 233.99 0.07 245.00 0.66 C 255.37 0.84 264.28 8.13 269.10 16.91 C 272.92 23.64 274.68 31.37 275.38 39.02 C 275.60 51.12 275.18 63.23 275.22 75.34 C 278.36 67.52 282.26 59.24 289.85 54.82 C 294.90 51.60 301.76 51.92 306.65 55.29 C 313.90 60.11 318.71 67.77 322.42 75.48 C 327.03 99.72 326.35 124.57 326.19 149.14 C 327.90 143.72 329.59 137.93 334.07 134.08 C 339.10 129.03 347.53 128.91 353.38 132.60 C 359.83 137.02 364.12 144.22 365.51 151.86 C 368.20 180.40 367.97 209.10 367.83 237.74 C 381.74 234.91 395.62 231.63 409.81 230.59 C 420.01 229.84 430.30 229.14 440.49 230.44 C 446.81 231.69 452.98 234.89 457.00 240.02 C 461.80 246.57 461.39 256.10 456.47 262.46 C 451.51 269.56 443.56 273.78 435.53 276.50 C 413.09 284.92 389.84 290.87 366.70 296.97 C 367.59 315.67 367.65 334.46 365.70 353.09 C 366.52 354.51 368.53 353.99 369.89 354.45 C 399.39 358.89 429.36 361.69 459.18 359.29 C 468.87 360.32 478.71 362.16 487.51 366.53 C 493.52 369.53 499.00 374.58 500.47 381.37 C 501.74 388.03 502.03 395.44 498.52 401.50 C 494.70 407.60 488.04 411.16 481.35 413.27 C 466.14 418.07 450.13 419.54 434.25 420.13 C 404.55 421.38 374.80 420.44 345.09 419.80 C 338.98 430.46 328.96 437.79 320.02 445.87 C 356.33 460.08 392.18 475.42 427.89 491.06 C 432.74 493.17 437.09 496.45 440.46 500.54 C 444.19 505.04 445.03 511.94 441.96 517.01 C 438.31 523.52 432.04 527.91 425.89 531.85 C 422.00 534.24 417.93 536.47 413.39 537.31 C 400.87 539.54 388.07 537.91 375.71 535.47 C 354.29 530.94 333.48 523.93 313.03 516.21 C 278.84 503.74 245.61 488.83 211.82 475.38 C 212.84 482.48 213.59 489.81 211.99 496.90 C 211.64 498.37 211.29 500.02 209.98 500.98 C 201.45 508.42 190.53 514.14 178.95 513.71 C 169.32 513.54 160.15 509.25 152.89 503.09 C 144.73 496.22 135.52 490.69 125.91 486.09 C 124.10 485.13 122.03 485.17 120.05 485.19 C 89.11 484.75 59.25 473.78 32.92 458.09 C 18.73 445.02 8.92 427.52 4.03 408.93 C -5.51 371.15 5.07 329.06 31.20 300.19 C 44.69 284.93 62.64 273.65 82.27 268.21 C 91.73 265.35 101.71 265.35 111.49 264.98 C 108.53 250.03 102.06 235.56 91.80 224.18 C 88.86 221.09 88.81 215.84 91.75 212.73 C 94.31 210.23 97.65 208.35 101.29 208.23 C 115.23 206.37 130.44 208.41 141.85 217.17 C 148.50 221.87 152.76 228.94 156.88 235.78 C 155.12 182.51 156.36 128.96 164.42 76.20 C 167.20 65.03 172.03 53.59 181.23 46.21 C 187.29 41.15 196.51 39.29 203.52 43.50 C 208.66 45.94 211.38 51.08 214.83 55.27 C 216.21 43.19 218.46 31.24 221.14 19.40 Z"
     id="path6" />
  <path
     fill="#ffffff"
     d=" M 232.78 13.79 C 235.75 10.20 240.49 8.66 245.04 8.69 C 251.41 9.17 257.09 13.19 260.50 18.47 C 265.67 26.59 267.76 36.44 267.33 45.99 C 267.27 76.35 265.81 106.69 264.00 136.99 C 262.09 164.79 259.43 192.53 257.57 220.33 C 260.29 220.47 263.00 220.67 265.70 220.98 C 266.82 206.63 268.11 192.29 269.27 177.94 C 271.02 151.50 273.26 125.04 277.82 98.91 C 279.86 89.21 281.63 79.21 286.39 70.39 C 289.00 66.06 292.45 60.94 298.05 60.69 C 303.25 61.18 306.58 65.69 309.58 69.47 C 311.87 72.98 314.55 76.52 315.14 80.79 C 321.00 120.54 317.47 160.85 313.56 200.61 C 310.92 217.72 309.28 234.99 308.32 252.28 C 292.53 256.35 276.92 261.04 261.18 265.29 C 230.41 273.18 198.31 270.89 166.99 268.37 C 162.49 205.10 163.18 141.21 172.34 78.36 C 174.44 69.64 177.83 60.73 184.29 54.28 C 187.91 50.50 193.68 48.00 198.78 50.19 C 204.44 53.33 208.36 59.42 209.15 65.81 C 210.10 77.53 210.71 89.30 210.65 101.06 C 208.50 141.86 209.91 182.74 211.64 223.52 C 214.31 223.47 216.98 223.39 219.66 223.40 C 218.57 182.27 218.95 141.13 218.91 99.99 C 220.14 74.89 222.91 49.82 228.17 25.23 C 229.06 21.21 229.55 16.72 232.78 13.79 Z"
     id="path8" />
  <path
     fill="#ffffff"
     d=" M 335.65 146.45 C 337.05 142.38 340.11 137.84 344.94 138.06 C 351.76 139.34 355.72 146.20 357.36 152.41 C 359.95 181.39 360.14 210.52 359.58 239.59 C 345.31 242.71 331.17 246.40 317.00 249.90 C 318.38 233.78 320.13 217.69 321.71 201.59 C 324.76 182.86 329.25 164.32 335.65 146.45 Z"
     id="path10" />
  <path
     fill="#ffffff"
     d=" M 97.57 218.10 C 101.52 215.46 106.47 215.96 110.99 215.79 C 122.54 215.60 134.72 219.64 142.26 228.74 C 151.52 239.61 155.19 253.86 157.78 267.58 C 145.21 266.35 132.62 265.29 119.98 265.05 C 116.61 247.83 109.18 231.34 97.57 218.10 Z"
     id="path12" />
  <path
     fill="#dadad8"
     d=" M 355.09 248.98 C 381.98 242.95 409.28 236.13 437.06 238.20 C 441.16 238.43 445.04 240.20 448.25 242.69 C 451.74 245.34 453.45 250.39 451.59 254.49 C 449.06 260.63 443.21 264.65 437.29 267.16 C 393.86 283.69 347.97 292.10 303.61 305.59 C 293.36 308.88 282.53 311.36 273.58 317.64 C 269.53 320.89 265.18 324.79 264.44 330.24 C 263.46 334.87 265.72 339.80 269.63 342.37 C 275.64 346.90 283.44 347.31 290.58 348.62 C 344.29 357.92 398.16 370.91 453.07 367.79 C 461.44 366.92 469.78 368.83 477.73 371.27 C 483.37 373.28 489.77 376.06 492.18 381.98 C 493.49 386.78 493.85 392.12 491.86 396.79 C 489.92 400.21 486.46 402.47 482.93 403.99 C 473.76 407.92 463.75 408.99 454.03 410.73 C 397.60 415.62 340.99 409.47 284.50 411.83 C 278.66 412.67 272.47 413.95 267.82 417.82 C 264.30 420.60 262.99 425.86 265.10 429.88 C 266.94 433.00 270.02 435.31 273.42 436.49 C 323.46 455.26 372.81 475.82 421.76 497.25 C 426.87 499.27 432.10 502.18 434.99 507.03 C 437.20 511.13 433.83 515.26 430.99 517.99 C 426.23 522.03 421.05 525.72 415.31 528.26 C 409.78 530.13 403.84 530.59 398.03 530.26 C 379.14 529.07 360.85 523.79 342.88 518.15 C 294.33 502.12 247.85 480.67 200.36 461.89 C 202.15 471.19 205.41 480.40 204.66 490.02 C 204.35 492.27 204.78 495.18 202.59 496.62 C 197.61 500.38 192.03 503.57 185.91 505.00 C 178.68 506.45 170.98 505.05 164.63 501.36 C 159.90 499.01 156.29 495.07 152.01 492.06 C 144.49 486.59 136.34 482.01 127.95 478.02 C 125.52 476.63 122.65 477.25 120.00 477.05 C 90.82 476.52 62.46 466.35 37.70 451.30 C 25.21 439.73 16.70 424.20 12.17 407.86 C 2.08 370.30 14.21 328.01 41.79 300.79 C 55.13 287.78 72.12 278.39 90.40 274.62 C 108.47 272.23 126.78 273.32 144.89 274.53 C 166.22 276.39 187.55 278.65 208.99 278.79 C 228.57 279.07 248.33 277.56 267.22 272.13 C 296.34 263.76 325.57 255.78 355.09 248.98 Z"
     id="path14" />
  <path
     fill="#ffffff"
     d=" M 294.07 317.02 C 315.39 310.40 336.92 304.40 358.62 299.19 C 359.40 316.96 359.77 334.90 357.26 352.54 C 331.93 347.86 306.60 343.15 281.23 338.67 C 277.82 337.81 273.54 336.52 272.27 332.85 C 272.24 329.54 274.86 327.16 277.17 325.17 C 282.18 321.33 288.10 318.91 294.07 317.02 Z"
     id="path16" />
  <path
     fill="#ffffff"
     d=" M 272.23 424.50 C 276.82 421.32 282.45 419.89 287.99 419.82 C 303.77 419.45 319.56 419.26 335.34 419.72 C 329.55 427.43 321.93 433.45 314.52 439.51 C 312.97 440.48 311.44 442.65 309.42 441.54 C 298.93 437.77 288.67 433.40 278.18 429.64 C 275.76 428.65 272.10 427.77 272.23 424.50 Z"
     id="path18" />
</svg>
