<?xml version="1.0" encoding="UTF-8" standalone="no"?>
<!-- Created with Inkscape (http://www.inkscape.org/) -->
<svg
   xmlns:svg="http://www.w3.org/2000/svg"
   xmlns="http://www.w3.org/2000/svg"
   version="1.0"
   width="200"
   height="215"
   id="svg2">
  <defs
     id="defs4" />
  <g
     id="layer1">
    <g
       transform="matrix(0.670493,0,0,0.670493,125.752,-133.7464)"
       id="g9987">
      <path
         d="M 69.082687 350.17303 A 39.540749 73.173111 0 1 1  -9.9988098,350.17303 A 39.540749 73.173111 0 1 1  69.082687 350.17303 z"
         transform="matrix(0.784508,-0.62012,0.62012,0.784508,-366.9358,157.1982)"
         style="color:black;fill:white;fill-opacity:1;fill-rule:nonzero;stroke:black;stroke-width:4.47431707;stroke-linecap:butt;stroke-linejoin:miter;marker:none;marker-start:none;marker-mid:none;marker-end:none;stroke-miterlimit:4;stroke-dasharray:none;stroke-dashoffset:0;stroke-opacity:1;visibility:visible;display:inline;overflow:visible"
         id="path3697" />
      <path
         d="M -98.44245,243.14474 L -98.7237,243.45724 C -95.152431,249.61338 -99.430813,262.90177 -109.31745,275.01974 C -120.31949,288.50485 -134.14868,295.47694 -140.19245,290.61349 C -81.273347,356.11209 -23.49007,421.88921 30.6513,488.58224 C 53.76545,512.14696 67.14433,517.15111 76.99505,515.39474 C 109.44643,507.37781 109.44885,474.18714 99.2763,461.30099 C 35.25083,397.78845 28.8805,417.86261 -98.44245,243.14474 z "
         style="fill:white;fill-opacity:1;fill-rule:evenodd;stroke:black;stroke-width:4.47432041;stroke-linecap:butt;stroke-linejoin:miter;stroke-miterlimit:4;stroke-dasharray:none;stroke-opacity:1"
         id="path3699" />
      <path
         d="M -39.0987,203.89474 C -45.10664,203.92182 -50.44294,205.54223 -54.7237,208.92599 C -58.64707,212.02725 -61.30789,216.35619 -62.81745,221.55099 C -69.69416,232.23406 -78.84914,244.73102 -88.94245,257.73849 C -88.25157,257.96415 -87.640148,258.2746 -87.06745,258.70724 C -80.958673,263.32207 -84.337486,278.25346 -94.62995,292.01974 C -104.92242,305.78601 -118.23992,313.19707 -124.3487,308.58224 C -125.639,307.60749 -126.50688,306.18088 -126.9737,304.39474 C -151.60033,333.50089 -172.51593,356.6046 -171.9737,356.17599 C -154.85064,342.64095 -120.64631,357.39474 -95.5987,389.08224 C -77.9871,411.36251 -69.58659,436.1087 -72.0987,453.55099 C -43.56441,401.54975 -12.13094,355.8344 33.5263,325.42599 C 34.20462,325.02814 36.15917,323.6727 36.49505,323.45724 L 36.43255,323.39474 C 53.03482,309.59694 46.52573,273.26112 21.68255,241.83224 C 2.89684,218.06662 -21.07489,203.81349 -39.0987,203.89474 z "
         style="color:black;fill:white;fill-opacity:1;fill-rule:nonzero;stroke:black;stroke-width:4.47432041;stroke-linecap:butt;stroke-linejoin:miter;marker:none;marker-start:none;marker-mid:none;marker-end:none;stroke-miterlimit:4;stroke-dasharray:none;stroke-dashoffset:0;stroke-opacity:1;visibility:visible;display:inline;overflow:visible"
         id="path3701" />
      <path
         d="M -98.1612,244.76974 C -95.767291,251.35884 -100.07324,263.68918 -109.31745,275.01974 C -120.31949,288.50485 -134.14868,295.47694 -140.19245,290.61349 C -135.91436,295.37282 -131.64711,300.13311 -127.37995,304.89474 C -127.23778,304.72682 -126.61304,305.49245 -126.37995,305.98849 C -125.47457,306.9991 -124.56593,308.00897 -123.6612,309.01974 C -117.28725,312.65079 -104.55575,305.29559 -94.62995,292.01974 C -85.999923,280.47699 -82.240138,268.11989 -84.8487,261.70724 C -85.590622,260.70219 -86.285286,259.75804 -87.0362,258.73849 C -87.048013,258.72943 -88.55212,257.21997 -88.3487,256.95724 C -91.38376,252.83117 -94.912448,249.06194 -98.1612,244.76974 z "
         style="fill:white;fill-opacity:1;fill-rule:evenodd;stroke:black;stroke-width:4.47432041;stroke-linecap:butt;stroke-linejoin:miter;stroke-miterlimit:4;stroke-dasharray:none;stroke-opacity:1"
         id="path5491" />
      <path
         d="M 66.810229 200.87263 A 14.089232 31.587149 0 1 1  38.631764,200.87263 A 14.089232 31.587149 0 1 1  66.810229 200.87263 z"
         transform="matrix(0.774836,0.632162,-0.632162,0.774836,-34.1139,77.13798)"
         style="color:black;fill:white;fill-opacity:1;fill-rule:nonzero;stroke:black;stroke-width:4.47432137;stroke-linecap:butt;stroke-linejoin:miter;marker:none;marker-start:none;marker-mid:none;marker-end:none;stroke-miterlimit:4;stroke-dasharray:none;stroke-dashoffset:0;stroke-opacity:1;visibility:visible;display:inline;overflow:visible"
         id="path3703" />
      <path
         d="M -106.81416,358.0702 C -62.38074,325.9104 -37.7574,283.84556 -18.50741,239.09404"
         style="fill:none;fill-opacity:1;fill-rule:evenodd;stroke:black;stroke-width:4.47432041;stroke-linecap:butt;stroke-linejoin:miter;stroke-miterlimit:4;stroke-dasharray:none;stroke-opacity:1"
         id="path5499" />
      <path
         d="M -37.01481,395.085 C 49.632,497.1589 54.64948,507.05649 83.01891,507.18698"
         style="fill:none;fill-opacity:1;fill-rule:evenodd;stroke:black;stroke-width:4.47432041;stroke-linecap:butt;stroke-linejoin:miter;stroke-miterlimit:4;stroke-dasharray:none;stroke-opacity:1"
         id="path6403" />
    </g>
  </g>
</svg>
