<?xml version="1.0" encoding="UTF-8" standalone="no"?>
<!-- Created with Inkscape (http://www.inkscape.org/) -->

<svg
   xmlns:dc="http://purl.org/dc/elements/1.1/"
   xmlns:cc="http://creativecommons.org/ns#"
   xmlns:rdf="http://www.w3.org/1999/02/22-rdf-syntax-ns#"
   xmlns:svg="http://www.w3.org/2000/svg"
   xmlns="http://www.w3.org/2000/svg"
   xmlns:sodipodi="http://sodipodi.sourceforge.net/DTD/sodipodi-0.dtd"
   xmlns:inkscape="http://www.inkscape.org/namespaces/inkscape"
   width="484"
   height="524"
   id="svg2"
   version="1.1"
   inkscape:version="0.48.0 r9654"
   sodipodi:docname="Logo WikiAfrica Palabre.svg">
  <title
     id="title3016">Logo of WikiAfrica Palabre</title>
  <defs
     id="defs4" />
  <sodipodi:namedview
     id="base"
     pagecolor="#ffffff"
     bordercolor="#666666"
     borderopacity="1.0"
     inkscape:pageopacity="0.0"
     inkscape:pageshadow="2"
     inkscape:zoom="0.49497475"
     inkscape:cx="582.7644"
     inkscape:cy="236.41832"
     inkscape:document-units="px"
     inkscape:current-layer="layer1"
     showgrid="false"
     fit-margin-top="5"
     fit-margin-left="5"
     fit-margin-bottom="5"
     fit-margin-right="5"
     inkscape:window-width="1280"
     inkscape:window-height="972"
     inkscape:window-x="-8"
     inkscape:window-y="-8"
     inkscape:window-maximized="1">
    <inkscape:grid
       type="xygrid"
       id="grid2996"
       empspacing="5"
       visible="true"
       enabled="true"
       snapvisiblegridlinesonly="true" />
  </sodipodi:namedview>
  <metadata
     id="metadata7">
    <rdf:RDF>
      <cc:Work
         rdf:about="">
        <dc:format>image/svg+xml</dc:format>
        <dc:type
           rdf:resource="http://purl.org/dc/dcmitype/StillImage" />
        <dc:title>Logo of WikiAfrica Palabre</dc:title>
        <dc:date>2006</dc:date>
        <dc:creator>
          <cc:Agent>
            <dc:title>http://www.lettera27.org/</dc:title>
          </cc:Agent>
        </dc:creator>
        <dc:rights>
          <cc:Agent>
            <dc:title>http://www.lettera27.org/</dc:title>
          </cc:Agent>
        </dc:rights>
        <dc:publisher>
          <cc:Agent>
            <dc:title>http://www.lettera27.org/</dc:title>
          </cc:Agent>
        </dc:publisher>
        <dc:contributor>
          <cc:Agent>
            <dc:title>SVG-version by Wikipedia User:Dmitry89</dc:title>
          </cc:Agent>
        </dc:contributor>
        <dc:description>Logo of WikiAfrica Palabre</dc:description>
        <dc:source>Logo of WikiAfrica Palabre</dc:source>
        <cc:license
           rdf:resource="http://creativecommons.org/licenses/by-sa/3.0/" />
      </cc:Work>
      <cc:License
         rdf:about="http://creativecommons.org/licenses/by-sa/3.0/">
        <cc:permits
           rdf:resource="http://creativecommons.org/ns#Reproduction" />
        <cc:permits
           rdf:resource="http://creativecommons.org/ns#Distribution" />
        <cc:requires
           rdf:resource="http://creativecommons.org/ns#Notice" />
        <cc:requires
           rdf:resource="http://creativecommons.org/ns#Attribution" />
        <cc:permits
           rdf:resource="http://creativecommons.org/ns#DerivativeWorks" />
        <cc:requires
           rdf:resource="http://creativecommons.org/ns#ShareAlike" />
      </cc:License>
    </rdf:RDF>
  </metadata>
  <g
     inkscape:label="Layer 1"
     inkscape:groupmode="layer"
     id="layer1"
     transform="translate(-133,-270.36218)">
    <path
       style="fill:#000000;stroke:#000000;stroke-width:1px;stroke-linecap:butt;stroke-linejoin:miter;stroke-opacity:1"
       d="m 379.69109,243.80894 c 5.18562,-1.91555 10.73287,-0.75762 16.03617,-0.50508 0.79769,0.038 6.51941,1.44216 9.21764,5.17703 3.54106,4.90151 4.218,12.63807 6.31346,14.64721 2.93928,2.8182 9.09137,4.9245 16.2887,4.41942 1.38555,-0.0972 13.87277,0.38841 16.28872,-1.51522 6.94156,-5.46955 -7.95495,-5.42957 -11.74303,-18.18275 -0.50077,-1.68592 -16.16244,-15.40483 -18.94036,-15.65737 -2.77792,-0.25254 -17.51509,-0.82989 -29.16815,6.06092 -1.26751,0.74952 -7.65005,6.79587 -4.29315,5.55584 z"
       id="path3014"
       inkscape:connector-curvature="0"
       transform="translate(133,270.36218)"
       sodipodi:nodetypes="ssssssssss" />
    <path
       style="fill:#000000;stroke:#000000;stroke-width:1px;stroke-linecap:butt;stroke-linejoin:miter;stroke-opacity:1"
       d="m 395.47975,195.95072 c 0.82916,-1.88549 1.83056,-6.19578 3.057,-8.36309 3.49674,-6.17926 7.86444,-10.84415 13.07875,-14.81588 5.1682,-3.93659 13.16399,-7.58874 17.82909,-8.72169 3.63074,-0.88176 -4.80171,10.6897 -4.80171,10.6897 0,0 -8.2368,16.4774 -13.38453,22.34963 -4.97539,5.67563 -17.7028,3.23688 -15.7786,-1.13867 z"
       id="path3012"
       inkscape:connector-curvature="0"
       transform="translate(133,270.36218)"
       sodipodi:nodetypes="sssscss" />
    <path
       style="fill:#000000;stroke:#000000;stroke-width:1px;stroke-linecap:butt;stroke-linejoin:miter;stroke-opacity:1"
       d="m 358.98296,107.50148 c 3.18268,-5.42649 3.01806,-13.685551 7.82868,-17.172596 1.26335,-0.915758 9.44975,0.206639 14.14214,-0.252538 5.18603,-0.507483 10.03528,-2.396297 13.57393,-5.492704 3.5853,-3.137237 4.50514,-11.709332 4.79822,-13.700194 1.99078,-13.523263 -37.12311,16.478113 -37.12311,16.478113 0,0 -9.91782,31.559969 -3.21986,20.139919 z"
       id="path3010"
       inkscape:connector-curvature="0"
       transform="translate(133,270.36218)"
       sodipodi:nodetypes="ssssscs" />
    <path
       style="fill:#000000;stroke:#000000;stroke-width:1px;stroke-linecap:butt;stroke-linejoin:miter;stroke-opacity:1"
       d="m 257.90457,46.892325 c 1.87687,-3.0926 5.26355,-5.950371 7.44988,-7.891817 3.78903,-3.364642 6.8344,-4.377702 11.74302,-6.060915 5.03409,-1.726238 4.84484,-1.524064 9.59645,-1.452094 8.27297,0.125307 -4.10374,18.561553 -4.10374,18.561553 0,0 -17.1726,3.030457 -17.74081,3.030457 -0.56821,0 -9.39938,-2.142675 -6.9448,-6.187184 z"
       id="path3008"
       inkscape:connector-curvature="0"
       transform="translate(133,270.36218)"
       sodipodi:nodetypes="sssscss" />
    <path
       style="fill:#000000;stroke:#000000;stroke-width:1px;stroke-linecap:butt;stroke-linejoin:miter;stroke-opacity:1"
       d="M 79,20 C 60,24 40,44 25,59 10.1358,73.8642 5,114 5,129 c 0,21.39284 0,80 10,90 20,20 50.09386,0.70088 90,-5 35,-5 37,16 40,22 12,51 -5,108 0,153 5.63093,50.67833 15,65 35,110 21,23 6,19 52,19 8,-1 53,-14 58,-34 C 290,484 120,44 79,20 z"
       id="path3004"
       inkscape:connector-curvature="0"
       transform="translate(133,270.36218)"
       sodipodi:nodetypes="csscscsccsc" />
    <path
       style="fill:#ffffff;stroke:#000000;stroke-width:1px;stroke-linecap:butt;stroke-linejoin:miter;stroke-opacity:1"
       d="m 120,9 c 4.94975,-0.7071068 65,-5 70,0 10,5 3.16228,18.675445 0,25 -1,2 3,13 15,13 30,0 44.38326,-0.02344 65,0 8,0 13,-11 17,-16 35.01428,0 44,2 78,6 5,1 20,2 30,17 6.77098,10.156468 5.27046,19.729537 0,25 -10,10 -25,0 -32,14 -4.219,8.43801 -6,25 -6,36 -1,13 2,42 17,58 7,6 26,13 36,7 10,-10 -1,-17 20,-30 10,0 25,0 30,5 5,5 13.3657,11.82849 15,20 5,25 5,40 -5,60 -2.23607,4.47214 -19.3934,18.53553 -30,15 -15,-5 -11.12046,-19.08031 -20,-25 -15,-10 -32.8314,-2.1686 -40,5 -10,10 -15,30 -15,45 0,45 25,50 15,65 -20,25 -40,40 -55,60 -8.48528,11.31371 -20,45 -25,55 -13.0384,26.07681 -35.01871,35.25094 -50,36 -20,1 -34,6 -45,-11 -13.58128,-20.98925 -32.28837,-74.15348 -35,-85 -5,-20 -10,-40 -5,-80 0.62017,-4.96139 5,-40 5,-55 0,-15 0,-45 -10,-60 -12.40347,-18.60521 -45.14787,-11.207 -50,-10 -36.833108,9.16252 -65.06181,15.02111 -70,10 C 25,199 25,159 25,159 20,114 29.17733,79.353344 40,54 65,19 93.488053,13.214173 120,9 z"
       id="path2998"
       inkscape:connector-curvature="0"
       transform="translate(133,270.36218)"
       sodipodi:nodetypes="ccscccccssccccssssssscssssssssscscc" />
    <path
       style="fill:#000000;stroke:#000000;stroke-width:1px;stroke-linecap:butt;stroke-linejoin:miter;stroke-opacity:1"
       d="m 185,194 c 5,0 36,0 44,0 1,2 1,3 0,5 -9,0 -9,0 -10,3 -3,6 4,22 4,22 7.06935,18.97447 13.02936,37.98915 20,57 l 2,0 17,-49 -11,-28 c 0,0 -2,-4 -12,-5 -1,-2 -1,-3 0,-5 9,0 41,0 48,0 1,2 1,3 0,5 -8,0 -12,2 -13,6 -1.01269,2.53171 2.1844,10.51631 7,24 5,14 11.58245,33.76004 18,54 l 2,0 c 8.49088,-25.19152 16.69827,-49.44396 24,-75 1,-2 -5,-9 -13,-9 -0.85464,-1.43086 -2,-5 0,-5 2,0 33,0 36,0 1,2 1,4 0,6 -8,0 -9.38755,2.7751 -11,6 -12.94903,39.60893 -26,73 -39,119 l -5,0 c -8.37726,-26.09596 -24,-78 -26,-78 -2,0 -17.62676,52.04333 -27,78 l -5,0 -10,-34 -16,-52 c 0,0 -9,-24 -14,-35 -2,-2 -2,-5 -10,-5 -1,-2 -1,-3 0,-5 z"
       id="path3000"
       inkscape:connector-curvature="0"
       transform="translate(133,270.36218)"
       sodipodi:nodetypes="ccccccccccccccsccccscccccsccccccc" />
  </g>
</svg>
